<svg xmlns="http://www.w3.org/2000/svg" viewBox="0 0 80 80"><path fill="green" d="M62,70.75a.7502.7502,0,0,0,.75-.75V22a.7502.7502,0,0,0-.75-.75H52.71191a12.733,12.733,0,0,0-25.42382,0H18a.7502.7502,0,0,0-.75.75V70a.7502.7502,0,0,0,.75.75Zm-22-60a11.26542,11.26542,0,0,1,11.22559,10.5H28.77441A11.26542,11.26542,0,0,1,40,10.75Zm-21.25,12h42.5v46.5H18.75Z"/><path fill="green" d="M40,34.75A5.25605,5.25605,0,0,1,45.25,40h1.5a6.7582,6.7582,0,0,0-6-6.70581V30h-1.5v3.29419A6.74874,6.74874,0,0,0,40,46.75,5.25,5.25,0,1,1,34.75,52h-1.5a6.7582,6.7582,0,0,0,6,6.70581V62h1.5V58.70581A6.74874,6.74874,0,0,0,40,45.25a5.25,5.25,0,0,1,0-10.5Z"/></svg>