<svg xmlns="http://www.w3.org/2000/svg" viewBox="0 0 80 80"><path fill="green" d="M49.625,55.25H26a.7502.7502,0,0,0-.75.75V70a.7502.7502,0,0,0,.75.75H54a.7502.7502,0,0,0,.75-.75V56a.7502.7502,0,0,0-.75-.75ZM26.75,56.75h2.79688A3.63565,3.63565,0,0,1,26.75,59.54688Zm0,12.5V66.45312A3.63565,3.63565,0,0,1,29.54688,69.25Zm26.5,0H50.45508A3.633,3.633,0,0,1,53.25,66.45508Zm0-4.29932A5.107,5.107,0,0,0,48.95068,69.25H31.04932A5.107,5.107,0,0,0,26.75,64.95068V61.04932A5.107,5.107,0,0,0,31.04932,56.75H48.95068A5.107,5.107,0,0,0,53.25,61.04932Zm0-5.4038A3.63565,3.63565,0,0,1,50.45312,56.75H53.25Z"/><path fill="green" d="M40,60.46875a.89148.89148,0,0,1,.89062.89063h1.5A2.38546,2.38546,0,0,0,40.75,59.10107V57.75h-1.5v1.35107A2.38388,2.38388,0,0,0,40,63.75a.89063.89063,0,1,1-.89062.89062h-1.5A2.38546,2.38546,0,0,0,39.25,66.89893V68.25h1.5V66.89893A2.38388,2.38388,0,0,0,40,62.25a.89063.89063,0,0,1,0-1.78125Z"/><path fill="green" d="M39.25,9.25v.019A26.892,26.892,0,0,0,13.14893,35.37012h-.01905v1.5h.03321a26.8631,26.8631,0,0,0,6.26269,16.53271l.4834.57373,1.14746-.96582-.48242-.57373a25.15657,25.15657,0,0,1-2.38355-3.37744H27.127a33.78621,33.78621,0,0,0,1.11914,3.22461l.28418.69385,1.38868-.56787-.28418-.69434c-.353-.86279-.65845-1.75513-.93848-2.65625H39.25V52.75h1.5V49.05957H51.30371c-.27954.90039-.5852,1.793-.93848,2.65625l-.28418.69434,1.38868.56787.28418-.69385a33.88784,33.88784,0,0,0,1.11938-3.22461h8.936A25.15657,25.15657,0,0,1,59.42578,52.437l-.48242.57373,1.14746.96582.4834-.57373a26.8631,26.8631,0,0,0,6.26269-16.53271h.03321v-1.5h-.019A26.892,26.892,0,0,0,40.75,9.269V9.25Zm-5.02686,2.17139c-3.01391,2.37085-5.50927,6.53662-7.084,11.75927H18.18945A25.45188,25.45188,0,0,1,34.22314,11.42139ZM17.36621,24.68066H26.7207a45.73627,45.73627,0,0,0-1.38989,10.68946H14.64893A25.193,25.193,0,0,1,17.36621,24.68066Zm.01416,22.87891a25.36763,25.36763,0,0,1-2.71728-10.68945H25.34424a45.65976,45.65976,0,0,0,1.38183,10.68945Zm21.86963,0H28.2688A44.02932,44.02932,0,0,1,26.844,36.87012H39.25Zm0-12.18945H26.83008A44.89383,44.89383,0,0,1,28.2417,24.68066H39.25Zm0-12.18946H28.66943C30.84961,16.13379,34.751,11.28223,39.25,10.7937ZM51.7312,47.55957H40.75V36.87012H53.156A44.04356,44.04356,0,0,1,51.7312,47.55957ZM40.75,35.37012V24.68066H51.7583a44.89383,44.89383,0,0,1,1.41162,10.68946ZM62.61963,47.55957h-9.3457a45.68183,45.68183,0,0,0,1.38183-10.68945H65.33691A25.36763,25.36763,0,0,1,62.61963,47.55957Zm2.73144-12.18945H54.66919A45.73627,45.73627,0,0,0,53.2793,24.68066h9.35449A25.193,25.193,0,0,1,65.35107,35.37012ZM61.81055,23.18066H52.86084c-1.57471-5.22265-4.07007-9.38842-7.084-11.75927A25.45188,25.45188,0,0,1,61.81055,23.18066Zm-10.48,0H40.75V10.7937C45.249,11.28223,49.15039,16.13379,51.33057,23.18066Z"/></svg>