<svg xmlns="http://www.w3.org/2000/svg" viewBox="0 0 80 80"><path fill="green" d="M30,43.25A1.25116,1.25116,0,0,1,28.75,42h-1.5a2.74481,2.74481,0,0,0,2,2.63281V46.3999h1.5V44.63281A2.74264,2.74264,0,0,0,30,39.25,1.25,1.25,0,1,1,31.25,38h1.5a2.74481,2.74481,0,0,0-2-2.63281V33.6001h-1.5v1.76709A2.74264,2.74264,0,0,0,30,40.75a1.25,1.25,0,0,1,0,2.5Z"/><path fill="green" d="M10,48.75h9.57422a21.71333,21.71333,0,0,0,34.24805,6.13306L69.46973,70.53027l1.06054-1.06054L54.88281,53.82251A21.73679,21.73679,0,1,0,18.69727,31.25H10a.7502.7502,0,0,0-.75.75V48A.7502.7502,0,0,0,10,48.75ZM24.68066,24.68115A20.39692,20.39692,0,1,1,22.53418,50.75H50a.7502.7502,0,0,0,.75-.75V30a.7502.7502,0,0,0-.75-.75H21.26709A20.17268,20.17268,0,0,1,24.68066,24.68115ZM44.55713,49.25A5.50443,5.50443,0,0,1,49.25,44.55737V49.25ZM49.25,35.44922A5.51271,5.51271,0,0,1,44.55078,30.75H49.25ZM20.53027,30.75H43.0415A7.0116,7.0116,0,0,0,49.25,36.9585v6.083A7.0116,7.0116,0,0,0,43.0415,49.25H21.562A20.30485,20.30485,0,0,1,20.53027,30.75Zm-9.78027,2h3.43359A4.261,4.261,0,0,1,10.75,36.18359Zm0,4.94531A5.75367,5.75367,0,0,0,15.69531,32.75h2.47852a21.88625,21.88625,0,0,0,.70508,14.5h-3.1836A5.75367,5.75367,0,0,0,10.75,42.30469Zm0,6.1211A4.261,4.261,0,0,1,14.18359,47.25H10.75Z"/></svg>